# This file uses centimeters as units for non-parametric coordinates.

mtllib Misil.mtl
g default
v 0.091021 0.037702 -1.014683
v 0.069664 0.069664 -1.014683
v 0.037702 0.091021 -1.014683
v 0.000000 0.098520 -1.014683
v -0.037702 0.091021 -1.014683
v -0.069664 0.069664 -1.014683
v -0.091021 0.037702 -1.014683
v -0.098520 0.000000 -1.014683
v -0.091021 -0.037702 -1.014683
v -0.069664 -0.069664 -1.014683
v -0.037702 -0.091021 -1.014683
v -0.000000 -0.098520 -1.014683
v 0.037702 -0.091021 -1.014683
v 0.069664 -0.069664 -1.014683
v 0.091021 -0.037702 -1.014683
v 0.098520 0.000000 -1.014683
v 0.091021 0.037702 -0.261773
v 0.069664 0.069664 -0.261773
v 0.037702 0.091021 -0.261773
v 0.000000 0.098520 -0.261773
v -0.037702 0.091021 -0.261773
v -0.069664 0.069664 -0.261773
v -0.091021 0.037702 -0.261773
v -0.098520 0.000000 -0.261773
v -0.091021 -0.037702 -0.261773
v -0.069664 -0.069664 -0.261773
v -0.037702 -0.091021 -0.261773
v -0.000000 -0.098520 -0.261773
v 0.037702 -0.091021 -0.261773
v 0.069664 -0.069664 -0.261773
v 0.091021 -0.037702 -0.261773
v 0.098520 0.000000 -0.261773
v 0.132017 0.054683 -0.190160
v 0.101042 0.101042 -0.190160
v 0.054683 0.132017 -0.190160
v 0.000000 0.142895 -0.190160
v -0.054683 0.132017 -0.190160
v -0.101042 0.101042 -0.190160
v -0.132017 0.054683 -0.190160
v -0.142895 0.000000 -0.190160
v -0.132017 -0.054683 -0.190160
v -0.101042 -0.101042 -0.190160
v -0.054683 -0.132017 -0.190160
v -0.000000 -0.142895 -0.190160
v 0.054683 -0.132017 -0.190160
v 0.101042 -0.101042 -0.190160
v 0.132017 -0.054683 -0.190160
v 0.142895 0.000000 -0.190160
v 0.027848 0.011535 0.162586
v 0.021313 0.021313 0.162586
v 0.011535 0.027848 0.162586
v 0.000000 0.030142 0.162586
v -0.011535 0.027848 0.162586
v -0.021313 0.021313 0.162586
v -0.027848 0.011535 0.162586
v -0.030142 0.000000 0.162586
v -0.027848 -0.011535 0.162586
v -0.021313 -0.021313 0.162586
v -0.011535 -0.027848 0.162586
v -0.000000 -0.030142 0.162586
v 0.011535 -0.027848 0.162586
v 0.021313 -0.021313 0.162586
v 0.027848 -0.011535 0.162586
v 0.030142 0.000000 0.162586
v 0.027848 0.011535 0.186162
v 0.021313 0.021313 0.186162
v 0.000000 0.000000 0.186162
v 0.011535 0.027848 0.186162
v 0.000000 0.030142 0.186162
v -0.011535 0.027848 0.186162
v -0.021313 0.021313 0.186162
v -0.027848 0.011535 0.186162
v -0.030142 0.000000 0.186162
v -0.027848 -0.011535 0.186162
v -0.021313 -0.021313 0.186162
v -0.011535 -0.027848 0.186162
v -0.000000 -0.030142 0.186162
v 0.011535 -0.027848 0.186162
v 0.021313 -0.021313 0.186162
v 0.027848 -0.011535 0.186162
v 0.030142 0.000000 0.186162
v 0.081202 0.033635 -1.014683
v 0.062149 0.062149 -1.014683
v 0.033635 0.081202 -1.014683
v 0.000000 0.087892 -1.014683
v -0.033635 0.081202 -1.014683
v -0.062149 0.062149 -1.014683
v -0.081202 0.033635 -1.014683
v -0.087892 0.000000 -1.014683
v -0.081202 -0.033635 -1.014683
v -0.062149 -0.062149 -1.014683
v -0.033635 -0.081202 -1.014683
v -0.000000 -0.087892 -1.014683
v 0.033635 -0.081202 -1.014683
v 0.062149 -0.062149 -1.014683
v 0.081202 -0.033635 -1.014683
v 0.087892 0.000000 -1.014683
v 0.081202 0.033635 -1.073265
v 0.062149 0.062149 -1.073265
v 0.000000 0.000000 -1.073265
v 0.033635 0.081202 -1.073265
v 0.000000 0.087892 -1.073265
v -0.033635 0.081202 -1.073265
v -0.062149 0.062149 -1.073265
v -0.081202 0.033635 -1.073265
v -0.087892 0.000000 -1.073265
v -0.081202 -0.033635 -1.073265
v -0.062149 -0.062149 -1.073265
v -0.033635 -0.081202 -1.073265
v -0.000000 -0.087892 -1.073265
v 0.033635 -0.081202 -1.073265
v 0.062149 -0.062149 -1.073265
v 0.081202 -0.033635 -1.073265
v 0.087892 0.000000 -1.073265
vt 0.907387 0.146834
vt 0.929741 0.124480
vt 0.832429 0.591180
vt 0.842038 0.561062
vt 0.941839 0.095273
vt 0.829181 0.622626
vt 0.941839 0.063660
vt 0.832429 0.654072
vt 0.929741 0.034452
vt 0.842038 0.684190
vt 0.907387 0.012098
vt 0.857600 0.711708
vt 0.878180 0.000000
vt 0.878460 0.735463
vt 0.846566 0.000000
vt 0.903735 0.754452
vt 0.817359 0.012098
vt 0.932358 0.767874
vt 0.795005 0.034452
vt 0.963120 0.775160
vt 0.782907 0.063660
vt 0.994723 0.469248
vt 0.782907 0.095273
vt 0.963120 0.470092
vt 0.795005 0.124480
vt 0.932358 0.477378
vt 0.817359 0.146834
vt 0.903735 0.490799
vt 0.846566 0.158932
vt 0.878460 0.509789
vt 0.878180 0.158932
vt 0.857600 0.533544
vt 0.969017 0.154801
vt 0.506232 0.730031
vt 0.928859 0.214902
vt 0.942960 0.144009
vt 0.914757 0.144009
vt 0.888700 0.154802
vt 0.868758 0.174744
vt 0.857965 0.200801
vt 0.857965 0.229004
vt 0.868758 0.255061
vt 0.888701 0.275003
vt 0.914757 0.285796
vt 0.942960 0.285796
vt 0.969017 0.275003
vt 0.988960 0.255060
vt 0.999752 0.229004
vt 0.999752 0.200801
vt 0.574580 0.019476
vt 0.506232 0.067705
vt 0.550268 0.024313
vt 0.506232 0.077377
vt 0.506232 0.087049
vt 0.506232 0.096721
vt 0.506232 0.106393
vt 0.506232 0.116065
vt 0.506232 0.125737
vt 0.506232 0.135409
vt 0.506232 0.145081
vt 0.506232 0.000000
vt 0.506232 0.009672
vt 0.506232 0.019344
vt 0.506232 0.029016
vt 0.506232 0.038688
vt 0.506232 0.048361
vt 0.842187 0.268396
vt 0.834054 0.223271
vt 0.844910 0.314168
vt 0.842187 0.359940
vt 0.834054 0.405066
vt 0.820628 0.448909
vt 0.802097 0.490850
vt 0.778723 0.530298
vt 0.750837 0.566696
vt 0.718830 0.599530
vt 0.683156 0.000000
vt 0.718830 0.028807
vt 0.750836 0.061640
vt 0.778723 0.098038
vt 0.802097 0.137486
vt 0.820628 0.179428
vt 0.525621 0.067705
vt 0.525621 0.058033
vt 0.525621 0.077377
vt 0.525621 0.087049
vt 0.525621 0.096721
vt 0.525621 0.106393
vt 0.525621 0.116065
vt 0.525621 0.125737
vt 0.525621 0.135409
vt 0.525621 0.145081
vt 0.525621 0.000000
vt 0.525621 0.009672
vt 0.525621 0.019344
vt 0.525621 0.029016
vt 0.525621 0.038688
vt 0.525621 0.048361
vt 0.554410 0.730031
vt 0.554410 0.701827
vt 0.554410 0.673624
vt 0.554410 0.645421
vt 0.554410 0.617218
vt 0.554410 0.589014
vt 0.554410 0.560811
vt 0.554410 0.532608
vt 0.554410 0.504404
vt 0.554410 0.476201
vt 0.554410 0.447998
vt 0.554410 0.871047
vt 0.554410 0.842844
vt 0.554410 0.814641
vt 0.554410 0.786437
vt 0.554410 0.758234
vt 0.506232 0.758234
vt 0.988959 0.174744
vt 0.506232 0.786437
vt 0.506232 0.814641
vt 0.506232 0.842844
vt 0.506232 0.871047
vt 0.506232 0.447998
vt 0.506232 0.899251
vt 0.506232 0.476201
vt 0.791479 0.065365
vt 0.554410 0.899251
vt 0.506232 0.504404
vt 0.506232 0.532608
vt 0.506232 0.560811
vt 0.506232 0.589014
vt 0.506232 0.617218
vt 0.506232 0.645421
vt 0.506232 0.673624
vt 0.506232 0.701827
vt 0.876474 0.150360
vt 0.902531 0.139567
vt 0.848271 0.150360
vt 0.822215 0.139567
vt 0.802272 0.119624
vt 0.791479 0.093568
vt 0.802272 0.039308
vt 0.822215 0.019365
vt 0.848271 0.008573
vt 0.876474 0.008573
vt 0.902531 0.019365
vt 0.922474 0.039308
vt 0.933267 0.065365
vt 0.933267 0.093568
vt 0.922474 0.119624
vt 0.570879 0.010540
vt 0.506232 0.058033
vt 0.564040 0.003701
vt 0.555104 0.000000
vt 0.545431 0.000000
vt 0.536496 0.003702
vt 0.506232 0.154753
vt 0.529657 0.010541
vt 0.525955 0.019477
vt 0.506232 0.247898
vt 0.506232 0.380438
vt 0.525621 0.154753
vt 0.525955 0.029149
vt 0.529657 0.038085
vt 0.536496 0.044924
vt 0.545432 0.048625
vt 0.555104 0.048625
vt 0.564040 0.044923
vt 0.570879 0.038084
vt 0.574580 0.029148
vt 0.535230 0.285746
vt 0.538062 0.294994
vt 0.531321 0.276899
vt 0.526391 0.268578
vt 0.520509 0.260901
vt 0.513757 0.253975
vt 0.513757 0.374362
vt 1.000000 0.400165
vt 1.000000 0.845087
vt 0.683156 0.628336
vt 0.520509 0.367436
vt 0.526391 0.359758
vt 0.531321 0.351437
vt 0.535230 0.342590
vt 0.538062 0.333342
vt 0.539778 0.323823
vt 0.540352 0.314168
vt 0.539778 0.304513
vt 0.801116 0.493420
vt 0.778544 0.533332
vt 0.831371 0.458966
vt 0.868030 0.431423
vt 0.909545 0.411957
vt 0.954164 0.401388
vt 0.954164 0.843863
vt 0.505818 0.000000
vt 0.000000 0.000000
vt 0.994723 0.776004
vt 0.909545 0.833295
vt 0.868030 0.813829
vt 0.831371 0.786286
vt 0.801116 0.751832
vt 0.778544 0.711919
vt 0.764608 0.668236
vt 0.759896 0.622626
vt 0.764608 0.577016
vt 0.000000 0.619195
vt 0.505818 0.619195
vt 0.347750 0.000000
vt 0.316136 0.000000
vt 0.379363 0.000000
vt 0.410977 0.000000
vt 0.442590 0.000000
vt 0.474204 0.000000
vt 0.031614 0.000000
vt 0.063227 0.000000
vt 0.094841 0.000000
vt 0.126454 0.000000
vt 0.158068 0.000000
vt 0.189682 0.000000
vt 0.221295 0.000000
vt 0.252909 0.000000
vt 0.284522 0.000000
vt 0.347750 0.619195
vt 0.316136 0.619195
vt 0.379363 0.619195
vt 0.410977 0.619195
vt 0.442590 0.619195
vt 0.474204 0.619195
vt 0.031614 0.619195
vt 0.063227 0.619195
vt 0.094841 0.619195
vt 0.126454 0.619195
vt 0.158068 0.619195
vt 0.189682 0.619195
vt 0.221295 0.619195
vt 0.252909 0.619195
vt 0.284522 0.619195
vn 0.923880 0.382683 0.000000
vn 0.707107 0.707106 0.000000
vn 0.707107 0.707106 0.000000
vn 0.923880 0.382683 0.000000
vn 0.382684 0.923879 0.000000
vn 0.382684 0.923879 0.000000
vn -0.000000 1.000000 0.000000
vn -0.000000 1.000000 0.000000
vn -0.382682 0.923880 0.000000
vn -0.382682 0.923880 0.000000
vn -0.707106 0.707107 0.000000
vn -0.707106 0.707107 0.000000
vn -0.923880 0.382683 0.000000
vn -0.923880 0.382683 0.000000
vn -1.000000 0.000000 0.000000
vn -1.000000 0.000000 0.000000
vn -0.923880 -0.382683 0.000000
vn -0.923880 -0.382683 0.000000
vn -0.707107 -0.707107 0.000000
vn -0.707107 -0.707107 0.000000
vn -0.382683 -0.923880 0.000000
vn -0.382683 -0.923880 0.000000
vn 0.000000 -1.000000 0.000000
vn 0.000000 -1.000000 0.000000
vn 0.382683 -0.923880 0.000000
vn 0.382683 -0.923880 0.000000
vn 0.707107 -0.707107 0.000000
vn 0.707107 -0.707107 0.000000
vn 0.923880 -0.382683 0.000000
vn 0.923880 -0.382683 0.000000
vn 1.000000 -0.000000 0.000000
vn 1.000000 -0.000000 0.000000
vn 0.000000 0.000000 -1.000000
vn 0.000000 0.000000 -1.000000
vn 0.000000 0.000000 -1.000000
vn 0.000003 0.000000 -1.000000
vn 0.000000 0.000000 -1.000000
vn -0.000003 0.000000 -1.000000
vn 0.000000 0.000000 -1.000000
vn 0.000000 0.000000 -1.000000
vn 0.000000 0.000000 -1.000000
vn 0.000000 0.000000 -1.000000
vn 0.000003 0.000000 -1.000000
vn 0.000003 0.000000 -1.000000
vn 0.000000 0.000000 -1.000000
vn -0.000003 0.000000 -1.000000
vn -0.000003 0.000000 -1.000000
vn 0.000000 0.000000 -1.000000
vn 0.000000 0.000000 -1.000000
vn -0.000001 0.000000 1.000000
vn -0.000001 0.000000 1.000000
vn -0.000000 0.000000 1.000000
vn 0.000000 0.000000 1.000000
vn 0.000000 0.000000 1.000000
vn 0.000000 0.000000 1.000000
vn 0.000000 0.000000 1.000000
vn 0.000000 0.000000 1.000000
vn 0.000000 0.000000 1.000000
vn -0.000001 0.000000 1.000000
vn -0.000001 0.000000 1.000000
vn 0.000000 0.000000 1.000000
vn 0.000000 0.000000 1.000000
vn 0.000000 0.000000 1.000000
vn 0.000001 0.000000 1.000000
vn 0.000001 0.000000 1.000000
vn 0.000000 0.000000 1.000000
vn 0.785333 0.325295 -0.526722
vn 0.601068 0.601067 -0.526722
vn 0.601068 0.601067 -0.526722
vn 0.785333 0.325295 -0.526722
vn 0.325295 0.785333 -0.526722
vn 0.325295 0.785333 -0.526722
vn 0.000000 0.850038 -0.526722
vn 0.000000 0.850038 -0.526722
vn -0.325295 0.785333 -0.526722
vn -0.325295 0.785333 -0.526722
vn -0.601067 0.601068 -0.526721
vn -0.601067 0.601068 -0.526721
vn -0.785333 0.325295 -0.526722
vn -0.785333 0.325296 -0.526722
vn -0.850038 0.000000 -0.526722
vn -0.850038 0.000000 -0.526722
vn -0.785333 -0.325295 -0.526722
vn -0.785333 -0.325295 -0.526722
vn -0.601068 -0.601067 -0.526722
vn -0.601068 -0.601067 -0.526722
vn -0.325295 -0.785333 -0.526722
vn -0.325295 -0.785333 -0.526722
vn -0.000000 -0.850038 -0.526722
vn -0.000000 -0.850038 -0.526722
vn 0.325295 -0.785333 -0.526722
vn 0.325295 -0.785333 -0.526722
vn 0.601068 -0.601068 -0.526721
vn 0.601068 -0.601068 -0.526721
vn 0.785333 -0.325295 -0.526722
vn 0.785333 -0.325295 -0.526722
vn 0.850038 -0.000000 -0.526722
vn 0.850038 -0.000000 -0.526722
vn 0.880016 0.364515 0.304468
vn 0.673536 0.673535 0.304467
vn 0.673536 0.673535 0.304467
vn 0.880016 0.364515 0.304468
vn 0.364515 0.880016 0.304468
vn 0.364515 0.880016 0.304468
vn 0.000000 0.952523 0.304467
vn 0.000000 0.952523 0.304467
vn -0.364515 0.880016 0.304467
vn -0.364515 0.880016 0.304467
vn -0.673535 0.673536 0.304467
vn -0.673535 0.673536 0.304467
vn -0.880016 0.364515 0.304468
vn -0.880016 0.364515 0.304468
vn -0.952523 0.000000 0.304467
vn -0.952523 0.000000 0.304467
vn -0.880016 -0.364515 0.304468
vn -0.880016 -0.364515 0.304468
vn -0.673536 -0.673535 0.304467
vn -0.673536 -0.673535 0.304467
vn -0.364515 -0.880016 0.304467
vn -0.364515 -0.880016 0.304468
vn -0.000000 -0.952523 0.304467
vn 0.000000 -0.952523 0.304467
vn 0.364515 -0.880016 0.304467
vn 0.364515 -0.880016 0.304467
vn 0.673535 -0.673535 0.304467
vn 0.673535 -0.673535 0.304467
vn 0.880016 -0.364515 0.304467
vn 0.880016 -0.364515 0.304467
vn 0.952523 -0.000000 0.304467
vn 0.952523 -0.000000 0.304467
vn 0.923878 0.382686 0.000000
vn 0.707109 0.707105 0.000000
vn 0.707109 0.707105 0.000000
vn 0.923878 0.382686 0.000000
vn 0.382688 0.923878 0.000000
vn 0.382688 0.923878 0.000000
vn 0.000000 1.000000 0.000000
vn 0.000000 1.000000 0.000000
vn -0.382686 0.923878 0.000000
vn -0.382686 0.923878 0.000000
vn -0.707106 0.707107 0.000000
vn -0.707106 0.707107 0.000000
vn -0.923878 0.382687 0.000000
vn -0.923878 0.382687 0.000000
vn -1.000000 0.000000 0.000000
vn -1.000000 0.000000 0.000000
vn -0.923878 -0.382686 0.000000
vn -0.923878 -0.382686 0.000000
vn -0.707109 -0.707105 0.000000
vn -0.707109 -0.707105 0.000000
vn -0.382688 -0.923878 0.000000
vn -0.382688 -0.923878 0.000000
vn 0.000000 -1.000000 0.000000
vn 0.000000 -1.000000 0.000000
vn 0.382686 -0.923878 0.000000
vn 0.382686 -0.923878 0.000000
vn 0.707106 -0.707107 0.000000
vn 0.707106 -0.707107 0.000000
vn 0.923878 -0.382687 0.000000
vn 0.923878 -0.382687 0.000000
vn 1.000000 0.000000 0.000000
vn 1.000000 0.000000 0.000000
vn 0.000002 0.000000 -1.000000
vn 0.000004 0.000000 -1.000000
vn 0.000004 0.000000 -1.000000
vn 0.000002 0.000000 -1.000000
vn 0.000001 0.000000 -1.000000
vn 0.000001 0.000000 -1.000000
vn 0.000001 0.000000 -1.000000
vn 0.000001 0.000000 -1.000000
vn -0.000001 0.000000 -1.000000
vn -0.000001 0.000000 -1.000000
vn -0.000003 0.000000 -1.000000
vn -0.000003 0.000000 -1.000000
vn 0.000002 0.000000 -1.000000
vn 0.000002 0.000000 -1.000000
vn 0.000007 0.000000 -1.000000
vn 0.000007 0.000000 -1.000000
vn 0.000002 0.000000 -1.000000
vn 0.000002 0.000000 -1.000000
vn 0.000003 0.000000 -1.000000
vn 0.000003 0.000000 -1.000000
vn 0.000001 0.000000 -1.000000
vn 0.000001 0.000000 -1.000000
vn -0.000000 0.000000 -1.000000
vn 0.000000 0.000000 -1.000000
vn 0.000001 0.000000 -1.000000
vn 0.000001 0.000000 -1.000000
vn 0.000002 0.000000 -1.000000
vn 0.000002 0.000000 -1.000000
vn 0.000002 0.000000 -1.000000
vn 0.000002 0.000000 -1.000000
vn 0.000002 0.000000 -1.000000
vn 0.000002 0.000000 -1.000000
vn 0.707107 0.707106 0.000000
vn 0.923880 0.382683 0.000000
vn 0.923880 0.382683 0.000000
vn 0.707107 0.707106 0.000000
vn 0.382683 0.923880 0.000000
vn 0.382683 0.923880 0.000000
vn 0.000000 1.000000 0.000000
vn 0.000000 1.000000 0.000000
vn -0.382683 0.923880 0.000000
vn -0.382683 0.923880 0.000000
vn -0.707107 0.707107 0.000000
vn -0.707107 0.707107 0.000000
vn -0.923879 0.382684 0.000000
vn -0.923879 0.382684 0.000000
vn -1.000000 0.000000 0.000000
vn -1.000000 0.000000 0.000000
vn -0.923880 -0.382683 0.000000
vn -0.923880 -0.382683 0.000000
vn -0.707107 -0.707106 0.000000
vn -0.707107 -0.707106 0.000000
vn -0.382683 -0.923880 0.000000
vn -0.382683 -0.923880 0.000000
vn 0.000000 -1.000000 0.000000
vn 0.000000 -1.000000 0.000000
vn 0.382683 -0.923880 0.000000
vn 0.382683 -0.923880 0.000000
vn 0.707107 -0.707107 0.000000
vn 0.707107 -0.707107 0.000000
vn 0.923880 -0.382683 0.000000
vn 0.923880 -0.382683 0.000000
vn 1.000000 -0.000001 0.000000
vn 1.000000 -0.000001 0.000000
s 1
g pCylinder2
usemtl initialShadingGroup
f 1/223/1 2/236/2 18/221/3 17/208/4
f 2/236/2 3/235/5 19/220/6 18/221/3
f 3/235/5 4/234/7 20/219/8 19/220/6
f 4/234/7 5/233/9 21/218/10 20/219/8
f 5/233/9 6/232/11 22/217/12 21/218/10
f 6/232/11 7/231/13 23/216/14 22/217/12
f 7/231/13 8/230/15 24/215/16 23/216/14
f 8/230/15 9/229/17 25/214/18 24/215/16
f 9/229/17 10/228/19 26/213/20 25/214/18
f 10/228/19 11/205/21 27/195/22 26/213/20
f 11/206/21 12/227/23 28/212/24 27/194/22
f 12/227/23 13/226/25 29/211/26 28/212/24
f 13/226/25 14/225/27 30/210/28 29/211/26
f 14/225/27 15/224/29 31/209/30 30/210/28
f 15/224/29 16/222/31 32/207/32 31/209/30
f 16/222/31 1/223/1 17/208/4 32/207/32
s 2
f 99/33/33 98/116/34 100/35/35
f 101/36/36 99/33/33 100/35/35
f 102/37/37 101/36/36 100/35/35
f 103/38/38 102/37/37 100/35/35
f 104/39/39 103/38/38 100/35/35
f 105/40/40 104/39/39 100/35/35
f 106/41/41 105/40/40 100/35/35
f 107/42/42 106/41/41 100/35/35
f 108/43/43 107/42/42 100/35/35
f 109/44/44 108/43/43 100/35/35
f 110/45/45 109/44/44 100/35/35
f 111/46/46 110/45/45 100/35/35
f 112/47/47 111/46/46 100/35/35
f 113/48/48 112/47/47 100/35/35
f 114/49/49 113/48/48 100/35/35
f 98/116/34 114/49/49 100/35/35
s 3
f 65/50/50 66/168/51 67/52/52
f 66/168/51 68/167/53 67/52/52
f 68/167/53 69/166/54 67/52/52
f 69/166/54 70/165/55 67/52/52
f 70/165/55 71/164/56 67/52/52
f 71/164/56 72/163/57 67/52/52
f 72/163/57 73/162/58 67/52/52
f 73/162/58 74/161/59 67/52/52
f 74/161/59 75/157/60 67/52/52
f 75/157/60 76/156/61 67/52/52
f 76/156/61 77/154/62 67/52/52
f 77/154/62 78/153/63 67/52/52
f 78/153/63 79/152/64 67/52/52
f 79/152/64 80/151/65 67/52/52
f 80/151/65 81/149/66 67/52/52
f 81/149/66 65/50/50 67/52/52
s 4
f 17/4/67 18/3/68 34/204/69 33/188/70
f 18/3/68 19/6/71 35/203/72 34/204/69
f 19/6/71 20/8/73 36/202/74 35/203/72
f 20/8/73 21/10/75 37/201/76 36/202/74
f 21/10/75 22/12/77 38/200/78 37/201/76
f 22/12/77 23/14/79 39/199/80 38/200/78
f 23/14/79 24/16/81 40/198/82 39/199/80
f 24/16/81 25/18/83 41/197/84 40/198/82
f 25/18/83 26/20/85 42/193/86 41/197/84
f 26/20/85 27/196/87 43/177/88 42/193/86
f 27/22/87 28/24/89 44/192/90 43/176/88
f 28/24/89 29/26/91 45/191/92 44/192/90
f 29/26/91 30/28/93 46/190/94 45/191/92
f 30/28/93 31/30/95 47/189/96 46/190/94
f 31/30/95 32/32/97 48/187/98 47/189/96
f 32/32/97 17/4/67 33/188/70 48/187/98
s 5
f 33/68/99 34/67/100 50/186/101 49/170/102
f 34/67/100 35/69/103 51/185/104 50/186/101
f 35/69/103 36/70/105 52/184/106 51/185/104
f 36/70/105 37/71/107 53/183/108 52/184/106
f 37/71/107 38/72/109 54/182/110 53/183/108
f 38/72/109 39/73/111 55/181/112 54/182/110
f 39/73/111 40/74/113 56/180/114 55/181/112
f 40/74/113 41/75/115 57/179/116 56/180/114
f 41/75/115 42/76/117 58/175/118 57/179/116
f 42/76/117 43/178/119 59/159/120 58/175/118
f 43/77/119 44/78/121 60/174/122 59/158/120
f 44/78/121 45/79/123 61/173/124 60/174/122
f 45/79/123 46/80/125 62/172/126 61/173/124
f 46/80/125 47/81/127 63/171/128 62/172/126
f 47/81/127 48/82/129 64/169/130 63/171/128
f 48/82/129 33/68/99 49/170/102 64/169/130
s 6
f 49/84/131 50/83/132 66/51/133 65/150/134
f 50/83/132 51/85/135 68/53/136 66/51/133
f 51/85/135 52/86/137 69/54/138 68/53/136
f 52/86/137 53/87/139 70/55/140 69/54/138
f 53/87/139 54/88/141 71/56/142 70/55/140
f 54/88/141 55/89/143 72/57/144 71/56/142
f 55/89/143 56/90/145 73/58/146 72/57/144
f 56/90/145 57/91/147 74/59/148 73/58/146
f 57/91/147 58/92/149 75/60/150 74/59/148
f 58/92/149 59/160/151 76/155/152 75/60/150
f 59/93/151 60/94/153 77/62/154 76/61/152
f 60/94/153 61/95/155 78/63/156 77/62/154
f 61/95/155 62/96/157 79/64/158 78/63/156
f 62/96/157 63/97/159 80/65/160 79/64/158
f 63/97/159 64/98/161 81/66/162 80/65/160
f 64/98/161 49/84/131 65/150/134 81/66/162
s 7
f 2/2/163 1/1/164 82/135/165 83/148/166
f 3/5/167 2/2/163 83/148/166 84/147/168
f 4/7/169 3/5/167 84/147/168 85/146/170
f 5/9/171 4/7/169 85/146/170 86/145/172
f 6/11/173 5/9/171 86/145/172 87/144/174
f 7/13/175 6/11/173 87/144/174 88/143/176
f 8/15/177 7/13/175 88/143/176 89/142/178
f 9/17/179 8/15/177 89/142/178 90/141/180
f 10/19/181 9/17/179 90/141/180 91/140/182
f 11/21/183 10/19/181 91/140/182 92/124/184
f 12/23/185 11/21/183 92/124/184 93/139/186
f 13/25/187 12/23/185 93/139/186 94/138/188
f 14/27/189 13/25/187 94/138/188 95/137/190
f 15/29/191 14/27/189 95/137/190 96/136/192
f 16/31/193 15/29/191 96/136/192 97/134/194
f 1/1/164 16/31/193 97/134/194 82/135/165
s 8
f 83/100/195 82/99/196 98/34/197 99/133/198
f 84/101/199 83/100/195 99/133/198 101/132/200
f 85/102/201 84/101/199 101/132/200 102/131/202
f 86/103/203 85/102/201 102/131/202 103/130/204
f 87/104/205 86/103/203 103/130/204 104/129/206
f 88/105/207 87/104/205 104/129/206 105/128/208
f 89/106/209 88/105/207 105/128/208 106/127/210
f 90/107/211 89/106/209 106/127/210 107/126/212
f 91/108/213 90/107/211 107/126/212 108/123/214
f 92/109/215 91/108/213 108/123/214 109/121/216
f 93/110/217 92/125/215 109/122/216 110/120/218
f 94/111/219 93/110/217 110/120/218 111/119/220
f 95/112/221 94/111/219 111/119/220 112/118/222
f 96/113/223 95/112/221 112/118/222 113/117/224
f 97/114/225 96/113/223 113/117/224 114/115/226
f 82/99/196 97/114/225 114/115/226 98/34/197
