# This file uses centimeters as units for non-parametric coordinates.

v 2.833146 0.052902 -2.730404
v 2.833146 0.052902 -0.730404
v 4.833146 0.052902 -0.730404
v 4.833146 0.052902 -2.730404
v 3.499812 0.052902 -2.730404
v 3.499812 0.052902 -0.730404
v 4.166479 0.052902 -2.730404
v 4.166479 0.052902 -0.730404
vt 0.697139 0.032450
vt 0.552918 0.883218
vt 0.555344 0.457834
vt 0.555344 0.032450
vt 0.839065 0.457834
vt 0.839065 0.032450
vt 0.697271 0.457834
vt 0.694712 0.457834
vt 0.552918 0.457834
vt 0.697139 0.457834
vt 0.697271 0.032450
vt 0.694713 0.883218
f 7/1 8/10 3/3 4/4
f 1/6 2/5 6/7 5/11
f 5/8 6/12 8/2 7/9
