# This file uses centimeters as units for non-parametric coordinates.

mtllib Calle.mtl
g default
v 2.000000 0.000000 -10.000000
v 5.000000 0.000000 -10.000000
v 2.000000 0.000000 -12.000000
v 5.000000 0.000000 -12.000000
vt 0.707654 0.022220
vt 0.707654 0.419603
vt 0.442732 0.022220
vt 0.442732 0.419603
vn 0.000000 1.000000 0.000000
vn 0.000000 1.000000 0.000000
vn 0.000000 1.000000 0.000000
vn 0.000000 1.000000 0.000000
s off
g pPlane3
usemtl initialShadingGroup
f 1/1/1 2/2/2 4/4/3 3/3/4
g default
v -2.000000 0.000000 -10.000000
v 1.000000 0.000000 -10.000000
v -2.000000 0.000000 -12.000000
v 1.000000 0.000000 -12.000000
vt 0.641845 0.548160
vt 0.641845 0.945543
vt 0.376923 0.548160
vt 0.376923 0.945543
vn 0.000000 1.000000 0.000000
vn 0.000000 1.000000 0.000000
vn 0.000000 1.000000 0.000000
vn 0.000000 1.000000 0.000000
s off
g pPlane2
usemtl initialShadingGroup
f 5/5/5 6/6/6 8/8/7 7/7/8
g default
v 6.000000 0.000000 -9.000000
v 9.000000 0.000000 -9.000000
v 6.000000 0.000000 -12.000000
v 9.000000 0.000000 -12.000000
vt 0.425290 0.022220
vt 0.425290 0.419603
vt 0.027908 0.022220
vt 0.027908 0.419603
vn 0.000000 1.000000 0.000000
vn 0.000000 1.000000 0.000000
vn 0.000000 1.000000 0.000000
vn 0.000000 1.000000 0.000000
s off
g pPlane4
usemtl initialShadingGroup
f 9/9/9 10/10/10 12/12/11 11/11/12
g default
v 3.899859 0.052902 -5.999999
v 3.899859 0.052902 -4.000000
v 5.899859 0.052902 -4.000000
v 5.899859 0.052902 -5.999999
vt 0.699892 0.675009
vt 0.964814 0.675009
vt 0.964814 0.939931
vt 0.699892 0.939931
vn 0.000000 1.000000 0.000000
vn 0.000000 1.000000 0.000000
vn 0.000000 1.000000 0.000000
vn 0.000000 1.000000 0.000000
s off
g polySurface2 pPlane1
usemtl initialShadingGroup
f 13/13/13 14/14/14 15/15/15 16/16/16
g default
v 0.000000 0.000000 -8.000000
v 0.000000 0.052902 -8.000000
v 2.000000 0.052902 -8.000000
v 2.000000 0.000000 -8.000000
v 0.000000 0.052902 -5.999999
v 2.000000 0.052902 -5.999999
v 0.000000 0.000000 -5.999999
vt 0.055140 0.673388
vt 0.320062 0.673389
vt 0.320062 0.680396
vt 0.055140 0.680396
vt 0.320062 0.945318
vt 0.055140 0.945318
vt 0.327069 0.680396
vt 0.327069 0.945318
vn 0.000000 0.000000 -1.000000
vn 0.000000 0.000000 -1.000000
vn 0.000000 0.000000 -1.000000
vn 0.000000 0.000000 -1.000000
vn 0.000000 1.000000 0.000000
vn 0.000000 1.000000 0.000000
vn 0.000000 1.000000 0.000000
vn 0.000000 1.000000 0.000000
vn -1.000000 0.000000 0.000000
vn -1.000000 0.000000 0.000000
vn -1.000000 0.000000 0.000000
vn -1.000000 0.000000 0.000000
s off
g pPlane1 polySurface4 polySurface1
usemtl initialShadingGroup
f 20/17/17 17/18/18 18/19/19 19/20/20
f 18/19/21 21/21/22 22/22/23 19/20/24
f 17/23/25 23/24/26 21/21/27 18/19/28
g default
v 0.000000 0.052902 -4.699155
v 0.000000 0.000000 -4.699155
v 0.000000 0.052902 -2.699155
v 2.000000 0.052902 -2.699155
v 2.000000 0.052902 -4.699155
v 0.000000 0.000000 -2.699155
vt 0.985025 0.284677
vt 0.720103 0.284677
vt 0.720103 0.019755
vt 0.985025 0.019755
vt 0.985025 0.291684
vt 0.720103 0.291684
vn 0.000000 1.000000 0.000000
vn 0.000000 1.000000 0.000000
vn 0.000000 1.000000 0.000000
vn 0.000000 1.000000 0.000000
vn -1.000000 0.000000 0.000000
vn -1.000000 0.000000 0.000000
vn -1.000000 0.000000 0.000000
vn -1.000000 0.000000 0.000000
s off
g pPlane1 polySurface1 polySurface6 polySurface3
usemtl initialShadingGroup
f 24/25/29 26/26/30 27/27/31 28/28/32
f 25/29/33 29/30/34 26/26/35 24/25/36
